<svg height="128" viewBox="0 0 128 128" width="128" xmlns="http://www.w3.org/2000/svg">
    <path fill="#ffffff" d="M18.2 81.7v.3l4 25.6c.5 3 3.4 5.2 6.5 4.7 3-.5 5.2-3.4 4.7-6.5l-.6-4 2.2 1.8c10 7.4 23 11 36.5 9 13.3-2.2 24.7-9.5 32-19.6 3.7-5 6.4-10.7 8-16.8L96 72c-1 4.2-3 8-5.4 11.5-5 6.8-12.5 11.7-21.6 13-9 1.5-17.7-1-24.5-6-1-.5-1.7-1.2-2.4-2l4.6.6c2.8.3 5.4-2 5.7-5 .3-3.2-1.8-6-4.7-6.2L24 75.5c-2.6-.3-5 1.6-5.6 4.2v.5c0 .2 0 .3-.2.4v1.1zM109.8 46.3V46l-4-25.6c-.5-3-3.4-5.2-6.5-4.7-3 .5-5.2 3.4-4.7 6.5l.6 4-2.2-1.8c-10-7.4-23-11-36.5-9-13.3 2.2-24.7 9.5-32 19.6-3.7 5-6.4 10.7-8 16.8L32 56c1-4.2 3-8 5.4-11.5 5-6.8 12.6-11.7 21.6-13 9-1.5 17.7 1 24.5 6 1 .5 1.7 1.2 2.4 2l-4.6-.6c-2.8-.4-5.4 2-5.7 5-.3 3.2 1.8 6 4.7 6.2l23.6 2.3c2.6.3 5-1.6 5.6-4.2v-.5c0-.2 0-.3.2-.4v-.7-.4z"/>
</svg>
